<svg id="visual" viewBox="0 0 900 600" width="900" height="600" xmlns="http://www.w3.org/2000/svg" xmlns:xlink="http://www.w3.org/1999/xlink" version="1.1"><rect x="0" y="0" width="900" height="600" fill="#1B3167"></rect><path d="M0 418L129 424L257 406L386 438L514 403L643 351L771 386L900 422L900 601L771 601L643 601L514 601L386 601L257 601L129 601L0 601Z" fill="#dbe3f6"></path><path d="M0 418L129 421L257 468L386 476L514 477L643 480L771 393L900 423L900 601L771 601L643 601L514 601L386 601L257 601L129 601L0 601Z" fill="#c2b1da"></path><path d="M0 441L129 488L257 495L386 437L514 439L643 489L771 500L900 511L900 601L771 601L643 601L514 601L386 601L257 601L129 601L0 601Z" fill="#be79a7"></path><path d="M0 499L129 504L257 490L386 540L514 483L643 512L771 521L900 513L900 601L771 601L643 601L514 601L386 601L257 601L129 601L0 601Z" fill="#b1405c"></path><path d="M0 525L129 563L257 568L386 569L514 526L643 537L771 532L900 566L900 601L771 601L643 601L514 601L386 601L257 601L129 601L0 601Z" fill="#871400"></path></svg>