<svg version="1.1" id="Layer_1" xmlns="http://www.w3.org/2000/svg" xmlns:xlink="http://www.w3.org/1999/xlink" x="0px" y="0px"
	 width="100%" viewBox="0 0 1000 666" enable-background="new 0 0 1000 666" xml:space="preserve">
<path fill="#1C3168" opacity="1.000000" stroke="none" 
	d="
M953.000000,667.000000 
	C652.970642,667.000000 352.941254,667.000000 52.470299,666.561768 
	C48.621372,642.107361 45.214050,618.091125 41.868252,593.644348 
	C41.543667,577.777710 41.157566,562.341614 40.856262,546.505615 
	C44.862350,518.749451 48.811218,491.397125 52.687325,464.034485 
	C53.783123,456.298920 56.133423,448.389801 55.392159,440.806213 
	C52.233734,408.493652 48.114697,376.275269 44.385021,344.018066 
	C43.295284,334.593109 41.132202,325.096741 41.573051,315.732544 
	C42.394352,298.286835 44.798725,280.917358 46.483150,263.510254 
	C48.985706,237.648331 51.909771,211.815582 53.782040,185.907364 
	C55.919418,156.330688 56.936340,126.674797 58.756496,97.072777 
	C59.893703,78.577881 60.321987,60.259937 56.377995,41.917671 
	C53.480911,28.444248 52.072071,14.650819 50.000000,1.000000 
	C350.029388,1.000000 650.058777,1.000000 950.529419,1.438194 
	C954.377991,25.892424 957.785217,49.908459 961.130554,74.355057 
	C961.455505,90.221924 961.842346,105.658234 962.144836,121.494537 
	C958.139587,149.250931 954.191589,176.603485 950.315186,203.966156 
	C949.219299,211.701981 946.864502,219.611008 947.605652,227.194427 
	C950.763855,259.506989 954.883362,291.725250 958.613708,323.982361 
	C959.703674,333.407471 961.868835,342.903717 961.428650,352.268036 
	C960.608398,369.713745 958.205505,387.083435 956.520691,404.490509 
	C954.017639,430.352356 951.091064,456.184875 949.218262,482.092987 
	C947.080383,511.669525 946.064636,541.325378 944.244141,570.927307 
	C943.106628,589.422180 942.676270,607.740112 946.619324,626.082458 
	C949.515808,639.556213 950.926941,653.349243 953.000000,667.000000 
z"/>
<path fill="#D9E1F4" opacity="1.000000" stroke="none" 
	d="
M49.532394,1.000000 
	C52.072071,14.650819 53.480911,28.444248 56.377995,41.917671 
	C60.321987,60.259937 59.893703,78.577881 58.756496,97.072777 
	C56.936340,126.674797 55.919418,156.330688 53.782040,185.907364 
	C51.909771,211.815582 48.985706,237.648331 46.483150,263.510254 
	C44.798725,280.917358 42.394352,298.286835 41.573051,315.732544 
	C41.132202,325.096741 43.295284,334.593109 44.385021,344.018066 
	C48.114697,376.275269 52.233734,408.493652 55.392159,440.806213 
	C56.133423,448.389801 53.783123,456.298920 52.687325,464.034485 
	C48.811218,491.397125 44.862350,518.749451 40.652168,546.159546 
	C39.259640,528.333252 38.062912,510.458160 37.077156,492.571442 
	C35.971931,472.516907 34.849327,452.459503 34.113464,432.389435 
	C33.218468,407.979126 32.523067,383.557648 32.110741,359.134735 
	C31.780090,339.549774 31.857121,319.954346 32.023136,300.365845 
	C32.149906,285.408020 32.694485,270.453644 33.070778,255.498199 
	C33.095749,254.505707 33.336216,253.518875 33.364769,252.526184 
	C33.813354,236.933014 34.243580,221.339310 34.638802,205.372070 
	C34.572330,202.409180 34.545086,199.819946 34.757912,197.085785 
	C35.023262,195.958618 35.048546,194.976349 35.072765,193.525848 
	C35.318439,184.088867 35.526703,175.118881 35.818893,166.151611 
	C36.831039,135.088852 38.920074,104.015068 38.564728,72.968773 
	C38.289940,48.961098 34.967529,24.988302 33.000000,1.000000 
	C38.354931,1.000000 43.709858,1.000000 49.532394,1.000000 
z"/>
<path fill="#D9E1F4" opacity="1.000000" stroke="none" 
	d="
M953.467590,667.000000 
	C950.926941,653.349243 949.515808,639.556213 946.619324,626.082458 
	C942.676270,607.740112 943.106628,589.422180 944.244141,570.927307 
	C946.064636,541.325378 947.080383,511.669525 949.218262,482.092987 
	C951.091064,456.184875 954.017639,430.352356 956.520691,404.490509 
	C958.205505,387.083435 960.608398,369.713745 961.428650,352.268036 
	C961.868835,342.903717 959.703674,333.407471 958.613708,323.982361 
	C954.883362,291.725250 950.763855,259.506989 947.605652,227.194427 
	C946.864502,219.611008 949.219299,211.701981 950.315186,203.966156 
	C954.191589,176.603485 958.139587,149.250931 962.348145,121.840912 
	C963.739807,139.667465 964.937012,157.542511 965.922852,175.429199 
	C967.028259,195.483688 968.150696,215.541061 968.886536,235.611084 
	C969.781555,260.021332 970.476990,284.442780 970.889282,308.865631 
	C971.219971,328.450562 971.142822,348.045959 970.976807,367.634430 
	C970.850037,382.592224 970.305542,397.546539 969.929199,412.501953 
	C969.904236,413.494446 969.663818,414.481323 969.635315,415.473969 
	C969.186707,431.067139 968.756409,446.660797 968.361206,462.627991 
	C968.427612,465.590942 968.454773,468.180206 968.241943,470.914368 
	C967.976624,472.041473 967.951416,473.023682 967.927246,474.474152 
	C967.681519,483.911133 967.473206,492.881134 967.181030,501.848419 
	C966.168945,532.911133 964.080017,563.984924 964.435364,595.031250 
	C964.710144,619.038879 968.032532,643.011719 970.000000,667.000000 
	C964.645081,667.000000 959.290100,667.000000 953.467590,667.000000 
z"/>
<path fill="#871402" opacity="1.000000" stroke="none" 
	d="
M2.000000,1.000000 
	C4.370557,1.000000 6.741115,1.000000 9.511368,1.423538 
	C9.667186,6.828413 9.220205,11.809354 9.210524,16.791145 
	C9.101422,72.929451 9.020169,129.067902 9.040210,185.206284 
	C9.043355,194.017426 9.582868,202.828537 9.883068,211.639374 
	C10.919868,242.069336 12.504899,272.492401 12.882931,302.930511 
	C13.602659,360.881042 13.705493,418.839813 13.925693,476.795715 
	C14.073670,515.743469 14.223476,554.694092 13.911534,593.639648 
	C13.715642,618.096619 12.666393,642.546814 12.000000,667.000000 
	C8.969407,667.000000 5.938814,667.000000 2.453570,666.540283 
	C1.999280,444.387054 1.999640,222.693527 2.000000,1.000000 
z"/>
<path fill="#871402" opacity="1.000000" stroke="none" 
	d="
M991.000000,1.000000 
	C994.330994,1.000000 997.661926,1.000000 1000.991577,1.000000 
	C1000.990295,223.000000 1000.990295,445.000000 1000.985474,667.000000 
	C998.648926,667.000000 996.317200,667.000000 993.537231,666.576477 
	C993.332825,661.171509 993.779907,656.190369 993.789551,651.208496 
	C993.898438,595.070251 993.979431,538.931824 993.959290,482.793427 
	C993.956116,473.982300 993.416992,465.171204 993.116821,456.360382 
	C992.080078,425.930420 990.495178,395.507416 990.117188,365.069305 
	C989.397461,307.118805 989.294556,249.160049 989.074341,191.204178 
	C988.926331,152.256439 988.776245,113.305870 989.088135,74.360252 
	C989.283997,49.903301 990.333496,25.453184 991.000000,1.000000 
z"/>
<path fill="#B0405B" opacity="1.000000" stroke="none" 
	d="
M12.454110,667.000000 
	C12.666393,642.546814 13.715642,618.096619 13.911534,593.639648 
	C14.223476,554.694092 14.073670,515.743469 13.925693,476.795715 
	C13.705493,418.839813 13.602659,360.881042 12.882931,302.930511 
	C12.504899,272.492401 10.919868,242.069336 9.883068,211.639374 
	C9.582868,202.828537 9.043355,194.017426 9.040210,185.206284 
	C9.020169,129.067902 9.101422,72.929451 9.210524,16.791145 
	C9.220205,11.809354 9.667186,6.828413 9.955532,1.423538 
	C14.024545,1.000000 18.049089,1.000000 22.499250,1.424057 
	C22.304169,8.627012 21.541620,15.396460 21.089207,22.186569 
	C19.697630,43.072300 18.118080,63.952171 17.179647,84.859818 
	C15.867444,114.094772 14.478848,143.348236 14.255464,172.602417 
	C14.106040,192.170944 15.731254,211.766174 16.917219,231.327957 
	C18.052980,250.061661 19.575569,268.773346 21.081430,287.482391 
	C21.557091,293.392029 22.526779,299.261902 23.241837,305.587891 
	C23.447664,314.013580 23.682030,322.001312 23.723866,330.205261 
	C23.794287,331.419586 24.057236,332.417755 24.346958,333.739624 
	C24.411154,334.927643 24.448574,335.791901 24.179138,336.889008 
	C23.610207,338.214569 23.123724,339.306641 23.120367,340.400177 
	C23.081900,352.931305 23.116911,365.462616 23.090977,378.461243 
	C22.717058,402.712128 22.449858,426.496765 22.028458,450.278687 
	C21.757435,465.574127 21.303270,480.866852 20.847847,496.158295 
	C20.555944,505.959351 19.907221,515.753174 19.777361,525.555054 
	C19.460636,549.461609 18.910700,573.377869 19.286854,597.277100 
	C19.652781,620.526550 21.053596,643.759705 22.000000,667.000000 
	C18.969406,667.000000 15.938813,667.000000 12.454110,667.000000 
z"/>
<path fill="#B0405B" opacity="1.000000" stroke="none" 
	d="
M990.545898,1.000000 
	C990.333496,25.453184 989.283997,49.903301 989.088135,74.360252 
	C988.776245,113.305870 988.926331,152.256439 989.074341,191.204178 
	C989.294556,249.160049 989.397461,307.118805 990.117188,365.069305 
	C990.495178,395.507416 992.080078,425.930420 993.116821,456.360382 
	C993.416992,465.171204 993.956116,473.982300 993.959290,482.793427 
	C993.979431,538.931824 993.898438,595.070251 993.789551,651.208496 
	C993.779907,656.190369 993.332825,661.171509 993.044495,666.576477 
	C988.975464,667.000000 984.950928,667.000000 980.500732,666.575928 
	C980.695801,659.372986 981.458435,652.603577 981.910828,645.813477 
	C983.302429,624.927734 984.881897,604.047852 985.820312,583.140259 
	C987.132568,553.905212 988.521240,524.651794 988.744568,495.397552 
	C988.893982,475.829010 987.268616,456.233795 986.082642,436.671997 
	C984.946838,417.938263 983.424377,399.226593 981.918518,380.517517 
	C981.442932,374.607880 980.473267,368.737976 979.758179,362.411987 
	C979.552368,353.986328 979.317932,345.998627 979.276062,337.794769 
	C979.205688,336.580475 978.942749,335.582275 978.653015,334.260376 
	C978.588745,333.072388 978.551331,332.208099 978.820801,331.111023 
	C979.389771,329.785522 979.876343,328.693512 979.879700,327.599976 
	C979.918152,315.068817 979.883118,302.537445 979.909058,289.538757 
	C980.282959,265.287903 980.550049,241.503204 980.971436,217.721252 
	C981.242493,202.425827 981.696716,187.133118 982.152161,171.841675 
	C982.444092,162.040573 983.092834,152.246735 983.222656,142.444885 
	C983.539368,118.538345 984.089233,94.622078 983.713074,70.722832 
	C983.347168,47.473415 981.946350,24.240284 981.000000,1.000001 
	C984.030579,1.000000 987.061218,1.000000 990.545898,1.000000 
z"/>
<path fill="#BE79A7" opacity="1.000000" stroke="none" 
	d="
M23.270370,305.149994 
	C22.526779,299.261902 21.557091,293.392029 21.081430,287.482391 
	C19.575569,268.773346 18.052980,250.061661 16.917219,231.327957 
	C15.731254,211.766174 14.106040,192.170944 14.255464,172.602417 
	C14.478848,143.348236 15.867444,114.094772 17.179647,84.859818 
	C18.118080,63.952171 19.697630,43.072300 21.089207,22.186569 
	C21.541620,15.396460 22.304169,8.627012 22.962433,1.424057 
	C26.030594,1.000000 29.061188,1.000000 32.545891,1.000000 
	C34.967529,24.988302 38.289940,48.961098 38.564728,72.968773 
	C38.920074,104.015068 36.831039,135.088852 35.818893,166.151611 
	C35.526703,175.118881 35.318439,184.088867 34.828239,193.779846 
	C34.562466,195.411606 34.540157,196.321152 34.517845,197.230698 
	C34.545086,199.819946 34.572330,202.409180 34.316872,205.579590 
	C33.310875,212.849365 32.506298,219.530350 31.879286,226.227966 
	C29.873861,247.649460 28.015627,269.085114 25.908062,290.496399 
	C25.423441,295.419769 24.169998,300.267456 23.270370,305.149994 
z"/>
<path fill="#BE79A7" opacity="1.000000" stroke="none" 
	d="
M979.729675,362.849884 
	C980.473267,368.737976 981.442932,374.607880 981.918518,380.517517 
	C983.424377,399.226593 984.946838,417.938263 986.082642,436.671997 
	C987.268616,456.233795 988.893982,475.829010 988.744568,495.397552 
	C988.521240,524.651794 987.132568,553.905212 985.820312,583.140259 
	C984.881897,604.047852 983.302429,624.927734 981.910828,645.813477 
	C981.458435,652.603577 980.695801,659.372986 980.037598,666.575928 
	C976.969421,667.000000 973.938782,667.000000 970.454102,667.000000 
	C968.032532,643.011719 964.710144,619.038879 964.435364,595.031250 
	C964.080017,563.984924 966.168945,532.911133 967.181030,501.848419 
	C967.473206,492.881134 967.681519,483.911133 968.171753,474.220154 
	C968.437439,472.588470 968.459717,471.678986 968.481934,470.769501 
	C968.454773,468.180206 968.427612,465.590942 968.683105,462.420471 
	C969.689148,455.150665 970.493774,448.469666 971.120728,441.772034 
	C973.126221,420.350494 974.984436,398.914825 977.092102,377.503540 
	C977.576721,372.580139 978.830078,367.732422 979.729675,362.849884 
z"/>
<path fill="#BE79A7" opacity="1.000000" stroke="none" 
	d="
M22.428463,667.000000 
	C21.053596,643.759705 19.652781,620.526550 19.286854,597.277100 
	C18.910700,573.377869 19.460636,549.461609 19.777361,525.555054 
	C19.907221,515.753174 20.555944,505.959351 20.847847,496.158295 
	C21.303270,480.866852 21.757435,465.574127 22.028458,450.278687 
	C22.449858,426.496765 22.717058,402.712128 23.430557,378.405334 
	C25.148211,377.588623 26.484922,377.295227 27.869240,377.456207 
	C27.985497,380.242157 27.958969,382.581055 28.137697,384.904144 
	C29.717289,405.435730 31.558163,425.950134 32.867798,446.498596 
	C33.925171,463.089020 34.340034,479.720093 35.069782,496.331848 
	C35.383499,503.473175 35.776722,510.611023 36.126934,517.750793 
	C37.223179,540.099792 40.440891,562.387939 37.056988,584.840698 
	C35.054459,598.127808 33.745075,611.523010 32.286926,624.887451 
	C30.756536,638.913879 29.420801,652.961609 28.000000,667.000000 
	C26.285643,667.000000 24.571283,667.000000 22.428463,667.000000 
z"/>
<path fill="#BE79A7" opacity="1.000000" stroke="none" 
	d="
M980.571533,1.000001 
	C981.946350,24.240284 983.347168,47.473415 983.713074,70.722832 
	C984.089233,94.622078 983.539368,118.538345 983.222656,142.444885 
	C983.092834,152.246735 982.444092,162.040573 982.152161,171.841675 
	C981.696716,187.133118 981.242493,202.425827 980.971436,217.721252 
	C980.550049,241.503204 980.282959,265.287903 979.569458,289.594727 
	C977.851807,290.411438 976.515076,290.704834 975.130737,290.543823 
	C975.014465,287.757812 975.041199,285.418915 974.862427,283.095764 
	C973.282776,262.564240 971.441772,242.049805 970.132141,221.501389 
	C969.074768,204.910965 968.659851,188.279907 967.930115,171.668167 
	C967.616394,164.526810 967.223267,157.388992 966.873108,150.249222 
	C965.777039,127.900215 962.558533,105.612061 965.942932,83.159241 
	C967.945740,69.872215 969.254883,56.476906 970.713013,43.112514 
	C972.243408,29.086073 973.579163,15.038395 975.000000,0.999999 
	C976.714355,1.000000 978.428711,1.000000 980.571533,1.000001 
z"/>
<path fill="#C2B0D9" opacity="1.000000" stroke="none" 
	d="
M28.463182,667.000000 
	C29.420801,652.961609 30.756536,638.913879 32.286926,624.887451 
	C33.745075,611.523010 35.054459,598.127808 37.056988,584.840698 
	C40.440891,562.387939 37.223179,540.099792 36.126934,517.750793 
	C35.776722,510.611023 35.383499,503.473175 35.069782,496.331848 
	C34.340034,479.720093 33.925171,463.089020 32.867798,446.498596 
	C31.558163,425.950134 29.717289,405.435730 28.137697,384.904144 
	C27.958969,382.581055 27.985497,380.242157 27.907793,377.042603 
	C26.986216,371.872101 25.557518,367.603790 25.269394,363.259857 
	C24.682644,354.413574 24.711054,345.526459 24.485996,336.656189 
	C24.448574,335.791901 24.411154,334.927643 24.520199,333.391907 
	C24.416576,331.810028 24.166487,330.899536 23.916397,329.989075 
	C23.682030,322.001312 23.447664,314.013580 23.241833,305.587891 
	C24.169998,300.267456 25.423441,295.419769 25.908062,290.496399 
	C28.015627,269.085114 29.873861,247.649460 31.879286,226.227966 
	C32.506298,219.530350 33.310875,212.849365 34.356098,205.953247 
	C34.243580,221.339310 33.813354,236.933014 33.364769,252.526184 
	C33.336216,253.518875 33.095749,254.505707 33.070778,255.498199 
	C32.694485,270.453644 32.149906,285.408020 32.023136,300.365845 
	C31.857121,319.954346 31.780090,339.549774 32.110741,359.134735 
	C32.523067,383.557648 33.218468,407.979126 34.113464,432.389435 
	C34.849327,452.459503 35.971931,472.516907 37.077156,492.571442 
	C38.062912,510.458160 39.259640,528.333252 40.567364,546.559448 
	C41.157566,562.341614 41.543667,577.777710 41.649605,593.986938 
	C41.250271,596.572998 41.029640,598.385742 41.027386,600.198792 
	C40.999710,622.465881 41.003986,644.732910 41.000000,667.000000 
	C36.975456,667.000000 32.950912,667.000000 28.463182,667.000000 
z"/>
<path fill="#C2B0D9" opacity="1.000000" stroke="none" 
	d="
M974.536804,0.999999 
	C973.579163,15.038395 972.243408,29.086073 970.713013,43.112514 
	C969.254883,56.476906 967.945740,69.872215 965.942932,83.159241 
	C962.558533,105.612061 965.777039,127.900215 966.873108,150.249222 
	C967.223267,157.388992 967.616394,164.526810 967.930115,171.668167 
	C968.659851,188.279907 969.074768,204.910965 970.132141,221.501389 
	C971.441772,242.049805 973.282776,262.564240 974.862427,283.095764 
	C975.041199,285.418915 975.014465,287.757812 975.092285,290.962341 
	C975.712646,296.210571 976.545593,300.568604 976.888123,304.964844 
	C977.572327,313.746735 977.987549,322.549591 978.513855,331.343811 
	C978.551331,332.208099 978.588745,333.072388 978.479736,334.608093 
	C978.583374,336.190002 978.833435,337.100464 979.083496,338.010895 
	C979.317932,345.998627 979.552368,353.986328 979.758179,362.411987 
	C978.830078,367.732422 977.576721,372.580139 977.092102,377.503540 
	C974.984436,398.914825 973.126221,420.350494 971.120728,441.772034 
	C970.493774,448.469666 969.689148,455.150665 968.643921,462.046814 
	C968.756409,446.660797 969.186707,431.067139 969.635315,415.473969 
	C969.663818,414.481323 969.904236,413.494446 969.929199,412.501953 
	C970.305542,397.546539 970.850037,382.592224 970.976807,367.634430 
	C971.142822,348.045959 971.219971,328.450562 970.889282,308.865631 
	C970.476990,284.442780 969.781555,260.021332 968.886536,235.611084 
	C968.150696,215.541061 967.028259,195.483688 965.922852,175.429199 
	C964.937012,157.542511 963.739807,139.667465 962.432495,121.440918 
	C961.842346,105.658234 961.455505,90.221924 961.349365,74.012680 
	C961.749329,71.426842 961.969971,69.614075 961.972290,67.801033 
	C962.000061,45.534050 961.995911,23.267019 962.000000,1.000000 
	C966.024536,1.000000 970.049072,1.000000 974.536804,0.999999 
z"/>
<path fill="#FFFFFF" opacity="1.000000" stroke="none" 
	d="
M1.500000,1.000000 
	C1.999640,222.693527 1.999280,444.387054 1.999452,666.540283 
	C1.666651,666.833374 1.056173,666.684082 1.044441,666.497253 
	C0.961014,665.169128 1.000000,663.833313 1.000000,662.500000 
	C1.000000,442.000000 1.000000,221.500000 1.500000,1.000000 
z"/>
<path fill="#D6DEF2" opacity="1.000000" stroke="none" 
	d="
M961.541931,1.000000 
	C961.995911,23.267019 962.000061,45.534050 961.972290,67.801033 
	C961.969971,69.614075 961.749329,71.426842 961.411255,73.582115 
	C957.785217,49.908459 954.377991,25.892424 950.985352,1.438194 
	C954.361267,1.000000 957.722595,1.000000 961.541931,1.000000 
z"/>
<path fill="#D6DEF2" opacity="1.000000" stroke="none" 
	d="
M41.458069,667.000000 
	C41.003986,644.732910 40.999710,622.465881 41.027386,600.198792 
	C41.029640,598.385742 41.250271,596.572998 41.588081,594.417480 
	C45.214050,618.091125 48.621372,642.107361 52.014347,666.561768 
	C48.638714,667.000000 45.277424,667.000000 41.458069,667.000000 
z"/>
<path fill="#C2B0D9" opacity="1.000000" stroke="none" 
	d="
M34.757912,197.085785 
	C34.540157,196.321152 34.562466,195.411606 34.829300,194.248077 
	C35.048546,194.976349 35.023262,195.958618 34.757912,197.085785 
z"/>
<path fill="#C2B0D9" opacity="1.000000" stroke="none" 
	d="
M968.241943,470.914368 
	C968.459717,471.678986 968.437439,472.588470 968.170715,473.751953 
	C967.951416,473.023682 967.976624,472.041473 968.241943,470.914368 
z"/>
<path fill="#BE79A7" opacity="1.000000" stroke="none" 
	d="
M24.179138,336.889008 
	C24.711054,345.526459 24.682644,354.413574 25.269394,363.259857 
	C25.557518,367.603790 26.986216,371.872101 27.860188,376.588226 
	C26.484922,377.295227 25.148211,377.588623 23.471918,377.937958 
	C23.116911,365.462616 23.081900,352.931305 23.120367,340.400177 
	C23.123724,339.306641 23.610207,338.214569 24.179138,336.889008 
z"/>
<path fill="#BE7EAB" opacity="1.000000" stroke="none" 
	d="
M23.723866,330.205261 
	C24.166487,330.899536 24.416576,331.810028 24.493425,333.068207 
	C24.057236,332.417755 23.794287,331.419586 23.723866,330.205261 
z"/>
<path fill="#BE79A7" opacity="1.000000" stroke="none" 
	d="
M978.820801,331.111023 
	C977.987549,322.549591 977.572327,313.746735 976.888123,304.964844 
	C976.545593,300.568604 975.712646,296.210571 975.139893,291.416748 
	C976.515076,290.704834 977.851807,290.411438 979.528076,290.062073 
	C979.883118,302.537445 979.918152,315.068817 979.879700,327.599976 
	C979.876343,328.693512 979.389771,329.785522 978.820801,331.111023 
z"/>
<path fill="#BE7EAB" opacity="1.000000" stroke="none" 
	d="
M979.276001,337.794769 
	C978.833435,337.100464 978.583374,336.190002 978.506592,334.931824 
	C978.942749,335.582275 979.205688,336.580475 979.276001,337.794769 
z"/>
</svg>