<svg version="1.1" id="Layer_1" xmlns="http://www.w3.org/2000/svg" xmlns:xlink="http://www.w3.org/1999/xlink" x="0px" y="0px"
	 width="100%" viewBox="0 0 1000 666" enable-background="new 0 0 1000 666" xml:space="preserve">
<path fill="#1C3168" opacity="1.000000" stroke="none" 
	d="
M877.000000,667.000000 
	C628.305298,667.000000 379.610596,667.000000 130.307953,666.601685 
	C137.314514,632.122131 144.980621,598.052368 152.513138,563.953064 
	C154.876282,553.255249 158.378220,542.534851 158.787628,531.727356 
	C160.509003,486.286102 161.269150,440.808228 162.328369,395.342560 
	C162.386063,392.866730 162.237427,390.322540 161.728058,387.906494 
	C152.944778,346.246643 144.020233,304.616394 135.330582,262.937164 
	C134.127716,257.167755 132.513870,250.873367 133.623413,245.328918 
	C142.663055,200.156952 152.339905,155.112732 161.670364,109.998108 
	C162.174774,107.559196 161.831833,104.658875 161.008514,102.275551 
	C152.268753,76.975700 143.317841,51.748924 134.502411,26.475044 
	C131.554398,18.023083 128.827805,9.493890 126.000000,1.000000 
	C375.028046,1.000000 624.056091,1.000000 873.468994,1.381102 
	C865.881470,37.132732 857.818848,72.483315 849.991516,107.885910 
	C847.629395,118.569756 844.553589,129.347061 844.150574,140.168915 
	C842.495239,184.620361 841.730957,229.105179 840.693970,273.579010 
	C840.632385,276.220856 840.751892,278.937347 841.294189,281.512360 
	C850.069702,323.181274 859.009460,364.815857 867.673340,406.507812 
	C868.901489,412.417969 870.341919,418.880341 869.201843,424.591675 
	C860.214844,469.613037 850.594727,514.507812 841.305176,559.469604 
	C840.831299,561.763062 841.096008,564.489868 841.870422,566.718384 
	C853.495789,600.174866 865.264832,633.581604 877.000000,667.000000 
z"/>
<path fill="#C2B1DA" opacity="1.000000" stroke="none" 
	d="
M894.000000,1.000001 
	C896.370544,1.000000 898.741150,1.000000 901.566528,1.403762 
	C909.791504,34.039288 917.544983,66.275116 925.380371,98.491005 
	C925.779419,100.131660 926.883423,101.600845 927.672607,103.553467 
	C926.931824,109.028877 926.285034,114.119553 925.398926,119.168228 
	C923.944031,127.457581 922.038757,135.557541 924.833923,144.116302 
	C926.922668,150.511703 927.641113,157.354660 928.723511,164.287720 
	C922.364929,196.896027 916.194031,229.204056 910.192078,261.543457 
	C909.052368,267.684265 907.059143,274.204193 908.048157,280.116180 
	C914.900024,321.073242 922.446960,361.913971 929.742310,402.797089 
	C930.850037,409.004608 932.510620,415.221893 932.657776,421.464325 
	C932.832886,428.893463 931.562927,436.348877 931.073669,443.803101 
	C930.029175,459.718262 929.070190,475.639130 928.102112,491.559235 
	C926.740662,513.949585 925.812866,536.375854 923.928894,558.721863 
	C922.340149,577.566528 919.701050,596.324463 917.437927,615.110046 
	C915.353394,632.414124 913.150696,649.703918 911.000000,667.000000 
	C908.299988,667.000000 905.599976,667.000000 902.462952,666.597778 
	C901.715210,664.739990 901.525574,663.245850 901.075928,661.834595 
	C891.126648,630.604004 881.064941,599.408691 871.293579,568.122620 
	C870.204651,564.636292 870.132324,560.563599 870.619324,556.899902 
	C872.870056,539.965515 875.489014,523.080017 877.969055,506.175995 
	C881.171204,484.349701 884.562561,462.548492 887.473938,440.683441 
	C888.739258,431.180817 890.292847,421.433960 889.467163,411.994690 
	C887.778320,392.687042 884.547302,373.515289 881.992249,354.282135 
	C879.830017,338.006073 878.192444,321.643768 875.469238,305.463226 
	C872.499146,287.815521 871.802246,270.294586 874.050354,252.516708 
	C876.400513,233.931030 878.093933,215.260529 879.950256,196.614761 
	C881.445618,181.594376 882.898499,166.567093 884.114746,151.522217 
	C885.866089,129.860657 887.446899,108.184685 888.979736,86.506332 
	C889.822876,74.583061 890.427734,62.642841 891.123962,50.709328 
	C892.090576,34.140015 893.042053,17.569818 894.000000,1.000001 
z"/>
<path fill="#C2B1DA" opacity="1.000000" stroke="none" 
	d="
M109.000000,667.000000 
	C106.629440,667.000000 104.258888,667.000000 101.377625,666.618042 
	C93.878670,637.396912 86.940025,608.545593 79.852547,579.730835 
	C78.693512,575.018677 76.878334,570.467834 75.349197,565.440063 
	C76.086823,560.126709 76.825104,555.213074 77.600258,550.305298 
	C78.884102,542.176697 81.003601,534.241150 78.283867,525.801575 
	C76.126030,519.105652 75.385880,511.952911 74.271530,504.720276 
	C80.988289,470.323547 87.484024,436.216003 93.867294,402.087372 
	C94.650879,397.897827 95.840874,393.420593 95.137680,389.372864 
	C88.057617,348.618256 80.595490,307.930145 73.311356,267.210724 
	C72.115166,260.523895 70.210960,253.738556 70.447426,247.063004 
	C71.141083,227.480728 72.788841,207.933273 73.984612,188.367386 
	C74.765305,175.593277 75.163231,162.791412 76.169632,150.036469 
	C77.932404,127.695450 79.824364,105.360184 82.061722,83.062607 
	C83.552864,68.201927 85.782990,53.416409 87.596901,38.586792 
	C89.128448,26.065672 90.537003,13.529507 92.000000,1.000000 
	C94.370560,1.000000 96.741112,1.000000 99.612946,1.376088 
	C110.754692,35.045021 121.479095,68.311623 131.910767,101.669769 
	C132.999054,105.149918 132.923706,109.250603 132.417328,112.929733 
	C129.793106,131.996552 126.825645,151.015900 124.031189,170.059616 
	C121.140587,189.758484 118.466225,209.490524 115.397041,229.161224 
	C113.545753,241.026321 112.280945,252.761688 114.128349,264.814911 
	C117.093307,284.159576 119.419754,303.601990 122.028587,323.001404 
	C124.261497,339.605469 126.409515,356.221893 128.790405,372.804810 
	C130.399246,384.010437 131.280136,395.154083 129.932983,406.495422 
	C127.722282,425.106873 125.906998,443.766510 124.049713,462.418274 
	C122.553551,477.443390 121.147888,492.478912 119.871071,507.524170 
	C118.159332,527.694275 116.530815,547.872131 115.022255,568.058350 
	C114.143608,579.815674 113.570587,591.595886 112.857628,603.365662 
	C111.572708,624.577148 110.285973,645.788574 109.000000,667.000000 
z"/>
<path fill="#871401" opacity="1.000000" stroke="none" 
	d="
M20.000004,667.000000 
	C14.311959,667.000000 8.623919,667.000000 2.467707,666.540283 
	C1.999691,444.387054 1.999846,222.693527 2.000000,1.000000 
	C11.020896,1.000000 20.041792,1.000000 29.497890,1.463331 
	C30.941687,17.024103 31.965666,32.120537 32.954746,47.219257 
	C34.041824,63.813953 35.107571,80.410065 36.163216,97.006790 
	C37.799294,122.729004 39.399235,148.453522 41.053585,174.174561 
	C41.917992,187.613937 42.959217,201.042465 43.749962,214.485916 
	C44.560497,228.265778 45.717392,242.057877 45.717247,255.844620 
	C45.717068,273.474396 44.556854,291.100861 44.173901,308.734772 
	C43.609806,334.709229 43.291512,360.688995 42.863586,386.666443 
	C42.847141,387.665100 42.801777,388.664490 42.732304,389.660889 
	C41.147923,412.385254 39.548920,435.108582 37.972897,457.833496 
	C36.891418,473.427551 35.949562,489.032104 34.748207,504.616791 
	C33.266289,523.840942 31.637518,543.054260 29.963423,562.262817 
	C28.635624,577.497986 27.171913,592.721497 25.718233,607.945374 
	C23.838352,627.632751 21.908398,647.315369 20.000004,667.000000 
z"/>
<path fill="#871401" opacity="1.000000" stroke="none" 
	d="
M983.000000,1.000001 
	C988.996338,1.000000 994.992615,1.000000 1000.960327,1.000000 
	C1000.960327,223.000000 1000.960327,445.000000 1000.960327,667.000000 
	C991.926270,667.000000 982.931763,667.000000 973.490479,666.538208 
	C972.039795,651.312012 971.013184,636.549072 970.038025,621.782715 
	C968.942139,605.188416 967.883118,588.591736 966.825195,571.994995 
	C965.196228,546.439209 963.599060,520.881287 961.954346,495.326477 
	C961.078796,481.720764 960.039490,468.125092 959.242554,454.515015 
	C958.435730,440.735107 957.283813,426.942932 957.285278,413.156250 
	C957.287170,395.526245 958.446228,377.899719 958.829163,360.265656 
	C959.393188,334.291016 959.564087,308.307373 960.207336,282.335114 
	C960.470642,271.703033 961.481506,261.087219 962.236267,250.470001 
	C963.792542,228.579483 965.431946,206.694885 966.983704,184.804062 
	C967.806885,173.191681 968.366211,161.558929 969.315308,149.957504 
	C970.751892,132.399094 972.385559,114.856384 974.008667,97.313774 
	C975.478638,81.425911 977.077942,65.550041 978.562683,49.663509 
	C980.078369,33.445755 981.523804,17.221439 983.000000,1.000001 
z"/>
<path fill="#DAE2F5" opacity="1.000000" stroke="none" 
	d="
M109.468536,667.000000 
	C110.285973,645.788574 111.572708,624.577148 112.857628,603.365662 
	C113.570587,591.595886 114.143608,579.815674 115.022255,568.058350 
	C116.530815,547.872131 118.159332,527.694275 119.871071,507.524170 
	C121.147888,492.478912 122.553551,477.443390 124.049713,462.418274 
	C125.906998,443.766510 127.722282,425.106873 129.932983,406.495422 
	C131.280136,395.154083 130.399246,384.010437 128.790405,372.804810 
	C126.409515,356.221893 124.261497,339.605469 122.028587,323.001404 
	C119.419754,303.601990 117.093307,284.159576 114.128349,264.814911 
	C112.280945,252.761688 113.545753,241.026321 115.397041,229.161224 
	C118.466225,209.490524 121.140587,189.758484 124.031189,170.059616 
	C126.825645,151.015900 129.793106,131.996552 132.417328,112.929733 
	C132.923706,109.250603 132.999054,105.149918 131.910767,101.669769 
	C121.479095,68.311623 110.754692,35.045021 100.057106,1.376088 
	C108.354233,1.000000 116.708466,1.000000 125.531349,1.000000 
	C128.827805,9.493890 131.554398,18.023083 134.502411,26.475044 
	C143.317841,51.748924 152.268753,76.975700 161.008514,102.275551 
	C161.831833,104.658875 162.174774,107.559196 161.670364,109.998108 
	C152.339905,155.112732 142.663055,200.156952 133.623413,245.328918 
	C132.513870,250.873367 134.127716,257.167755 135.330582,262.937164 
	C144.020233,304.616394 152.944778,346.246643 161.728058,387.906494 
	C162.237427,390.322540 162.386063,392.866730 162.328369,395.342560 
	C161.269150,440.808228 160.509003,486.286102 158.787628,531.727356 
	C158.378220,542.534851 154.876282,553.255249 152.513138,563.953064 
	C144.980621,598.052368 137.314514,632.122131 129.850006,666.601685 
	C123.312355,667.000000 116.624710,667.000000 109.468536,667.000000 
z"/>
<path fill="#DAE2F5" opacity="1.000000" stroke="none" 
	d="
M893.531616,1.000001 
	C893.042053,17.569818 892.090576,34.140015 891.123962,50.709328 
	C890.427734,62.642841 889.822876,74.583061 888.979736,86.506332 
	C887.446899,108.184685 885.866089,129.860657 884.114746,151.522217 
	C882.898499,166.567093 881.445618,181.594376 879.950256,196.614761 
	C878.093933,215.260529 876.400513,233.931030 874.050354,252.516708 
	C871.802246,270.294586 872.499146,287.815521 875.469238,305.463226 
	C878.192444,321.643768 879.830017,338.006073 881.992249,354.282135 
	C884.547302,373.515289 887.778320,392.687042 889.467163,411.994690 
	C890.292847,421.433960 888.739258,431.180817 887.473938,440.683441 
	C884.562561,462.548492 881.171204,484.349701 877.969055,506.175995 
	C875.489014,523.080017 872.870056,539.965515 870.619324,556.899902 
	C870.132324,560.563599 870.204651,564.636292 871.293579,568.122620 
	C881.064941,599.408691 891.126648,630.604004 901.075928,661.834595 
	C901.525574,663.245850 901.715210,664.739990 902.012939,666.597778 
	C893.979065,667.000000 885.958191,667.000000 877.468628,667.000000 
	C865.264832,633.581604 853.495789,600.174866 841.870422,566.718384 
	C841.096008,564.489868 840.831299,561.763062 841.305176,559.469604 
	C850.594727,514.507812 860.214844,469.613037 869.201843,424.591675 
	C870.341919,418.880341 868.901489,412.417969 867.673340,406.507812 
	C859.009460,364.815857 850.069702,323.181274 841.294189,281.512360 
	C840.751892,278.937347 840.632385,276.220856 840.693970,273.579010 
	C841.730957,229.105179 842.495239,184.620361 844.150574,140.168915 
	C844.553589,129.347061 847.629395,118.569756 849.991516,107.885910 
	C857.818848,72.483315 865.881470,37.132732 873.926880,1.381102 
	C880.354431,1.000000 886.708801,1.000000 893.531616,1.000001 
z"/>
<path fill="#B1405C" opacity="1.000000" stroke="none" 
	d="
M982.531372,1.000001 
	C981.523804,17.221439 980.078369,33.445755 978.562683,49.663509 
	C977.077942,65.550041 975.478638,81.425911 974.008667,97.313774 
	C972.385559,114.856384 970.751892,132.399094 969.315308,149.957504 
	C968.366211,161.558929 967.806885,173.191681 966.983704,184.804062 
	C965.431946,206.694885 963.792542,228.579483 962.236267,250.470001 
	C961.481506,261.087219 960.470642,271.703033 960.207336,282.335114 
	C959.564087,308.307373 959.393188,334.291016 958.829163,360.265656 
	C958.446228,377.899719 957.287170,395.526245 957.285278,413.156250 
	C957.283813,426.942932 958.435730,440.735107 959.242554,454.515015 
	C960.039490,468.125092 961.078796,481.720764 961.954346,495.326477 
	C963.599060,520.881287 965.196228,546.439209 966.825195,571.994995 
	C967.883118,588.591736 968.942139,605.188416 970.038025,621.782715 
	C971.013184,636.549072 972.039795,651.312012 973.021851,666.538208 
	C966.978821,667.000000 960.957703,667.000000 954.410095,666.610107 
	C947.921326,639.961914 941.860046,613.725525 936.043274,587.435120 
	C933.576355,576.285278 929.717896,565.325745 931.007751,553.571228 
	C931.822632,546.145142 932.371460,538.686707 932.898743,531.232849 
	C934.938416,502.400146 936.815430,473.555481 938.961243,444.730804 
	C940.514587,423.863922 942.146240,402.996979 944.191345,382.174072 
	C947.225891,351.276550 950.696106,320.421997 953.878418,289.538605 
	C954.368347,284.783142 955.299133,279.763275 954.342468,275.220184 
	C949.171631,250.661926 943.519836,226.204041 937.931885,201.734848 
	C935.053589,189.131104 931.963867,176.575638 928.969727,163.998352 
	C927.641113,157.354660 926.922668,150.511703 924.833923,144.116302 
	C922.038757,135.557541 923.944031,127.457581 925.398926,119.168228 
	C926.285034,114.119553 926.931824,109.028877 927.918396,103.217636 
	C928.410583,101.693665 928.771240,100.927185 928.915527,100.121941 
	C932.958069,77.565811 937.039185,55.016308 940.976074,32.441673 
	C942.799255,21.987024 944.334351,11.482123 946.000000,1.000001 
	C958.020874,1.000000 970.041809,1.000000 982.531372,1.000001 
z"/>
<path fill="#B1405C" opacity="1.000000" stroke="none" 
	d="
M20.468660,667.000000 
	C21.908398,647.315369 23.838352,627.632751 25.718233,607.945374 
	C27.171913,592.721497 28.635624,577.497986 29.963423,562.262817 
	C31.637518,543.054260 33.266289,523.840942 34.748207,504.616791 
	C35.949562,489.032104 36.891418,473.427551 37.972897,457.833496 
	C39.548920,435.108582 41.147923,412.385254 42.732304,389.660889 
	C42.801777,388.664490 42.847141,387.665100 42.863586,386.666443 
	C43.291512,360.688995 43.609806,334.709229 44.173901,308.734772 
	C44.556854,291.100861 45.717068,273.474396 45.717247,255.844620 
	C45.717392,242.057877 44.560497,228.265778 43.749962,214.485916 
	C42.959217,201.042465 41.917992,187.613937 41.053585,174.174561 
	C39.399235,148.453522 37.799294,122.729004 36.163216,97.006790 
	C35.107571,80.410065 34.041824,63.813953 32.954746,47.219257 
	C31.965666,32.120537 30.941687,17.024103 29.966549,1.463331 
	C36.021152,1.000000 42.042305,1.000000 48.527012,1.410401 
	C55.107265,29.062288 61.382309,56.269699 67.255699,83.563545 
	C69.341064,93.254303 71.585365,103.139404 71.722656,112.964211 
	C71.902969,125.866852 70.028267,138.794495 69.115807,151.716919 
	C67.407555,175.909393 65.909187,200.117752 64.037292,224.297333 
	C62.166084,248.468109 60.163094,272.632996 57.819279,296.761749 
	C55.138805,324.356323 51.977177,351.903931 49.129719,379.482788 
	C48.638474,384.240692 47.668213,389.264008 48.625992,393.804718 
	C54.148354,419.985718 60.128929,446.071014 66.071251,472.162079 
	C68.572105,483.142639 71.359261,494.057983 74.016273,505.002991 
	C75.385880,511.952911 76.126030,519.105652 78.283867,525.801575 
	C81.003601,534.241150 78.884102,542.176697 77.600258,550.305298 
	C76.825104,555.213074 76.086823,560.126709 75.104813,565.782593 
	C74.645950,567.148071 74.312187,567.750427 74.197365,568.391907 
	C70.511581,588.985229 66.804504,609.574890 63.195156,630.181641 
	C61.048058,642.440063 59.059708,654.726257 56.999996,667.000000 
	C44.979103,667.000000 32.958210,667.000000 20.468660,667.000000 
z"/>
<path fill="#BE79A7" opacity="1.000000" stroke="none" 
	d="
M74.271530,504.720276 
	C71.359261,494.057983 68.572105,483.142639 66.071251,472.162079 
	C60.128929,446.071014 54.148354,419.985718 48.625992,393.804718 
	C47.668213,389.264008 48.638474,384.240692 49.129719,379.482788 
	C51.977177,351.903931 55.138805,324.356323 57.819279,296.761749 
	C60.163094,272.632996 62.166084,248.468109 64.037292,224.297333 
	C65.909187,200.117752 67.407555,175.909393 69.115807,151.716919 
	C70.028267,138.794495 71.902969,125.866852 71.722656,112.964211 
	C71.585365,103.139404 69.341064,93.254303 67.255699,83.563545 
	C61.382309,56.269699 55.107265,29.062288 48.995285,1.410401 
	C63.020893,1.000000 77.041786,1.000000 91.531342,1.000000 
	C90.537003,13.529507 89.128448,26.065672 87.596901,38.586792 
	C85.782990,53.416409 83.552864,68.201927 82.061722,83.062607 
	C79.824364,105.360184 77.932404,127.695450 76.169632,150.036469 
	C75.163231,162.791412 74.765305,175.593277 73.984612,188.367386 
	C72.788841,207.933273 71.141083,227.480728 70.447426,247.063004 
	C70.210960,253.738556 72.115166,260.523895 73.311356,267.210724 
	C80.595490,307.930145 88.057617,348.618256 95.137680,389.372864 
	C95.840874,393.420593 94.650879,397.897827 93.867294,402.087372 
	C87.484024,436.216003 80.988289,470.323547 74.271530,504.720276 
z"/>
<path fill="#BE79A7" opacity="1.000000" stroke="none" 
	d="
M928.723511,164.287735 
	C931.963867,176.575638 935.053589,189.131104 937.931885,201.734848 
	C943.519836,226.204041 949.171631,250.661926 954.342468,275.220184 
	C955.299133,279.763275 954.368347,284.783142 953.878418,289.538605 
	C950.696106,320.421997 947.225891,351.276550 944.191345,382.174072 
	C942.146240,402.996979 940.514587,423.863922 938.961243,444.730804 
	C936.815430,473.555481 934.938416,502.400146 932.898743,531.232849 
	C932.371460,538.686707 931.822632,546.145142 931.007751,553.571228 
	C929.717896,565.325745 933.576355,576.285278 936.043274,587.435120 
	C941.860046,613.725525 947.921326,639.961914 953.941833,666.610107 
	C939.979126,667.000000 925.958191,667.000000 911.468628,667.000000 
	C913.150696,649.703918 915.353394,632.414124 917.437927,615.110046 
	C919.701050,596.324463 922.340149,577.566528 923.928894,558.721863 
	C925.812866,536.375854 926.740662,513.949585 928.102112,491.559235 
	C929.070190,475.639130 930.029175,459.718262 931.073669,443.803101 
	C931.562927,436.348877 932.832886,428.893463 932.657776,421.464325 
	C932.510620,415.221893 930.850037,409.004608 929.742310,402.797089 
	C922.446960,361.913971 914.900024,321.073242 908.048157,280.116180 
	C907.059143,274.204193 909.052368,267.684265 910.192078,261.543457 
	C916.194031,229.204056 922.364929,196.896027 928.723511,164.287735 
z"/>
<path fill="#BE79A7" opacity="1.000000" stroke="none" 
	d="
M945.531372,1.000001 
	C944.334351,11.482123 942.799255,21.987024 940.976074,32.441673 
	C937.039185,55.016308 932.958069,77.565811 928.915527,100.121941 
	C928.771240,100.927185 928.410583,101.693665 927.904907,102.814041 
	C926.883423,101.600845 925.779419,100.131660 925.380371,98.491005 
	C917.544983,66.275116 909.791504,34.039288 902.010620,1.403762 
	C916.354248,1.000000 930.708435,1.000000 945.531372,1.000001 
z"/>
<path fill="#BE79A7" opacity="1.000000" stroke="none" 
	d="
M57.468655,667.000000 
	C59.059708,654.726257 61.048058,642.440063 63.195156,630.181641 
	C66.804504,609.574890 70.511581,588.985229 74.197365,568.391907 
	C74.312187,567.750427 74.645950,567.148071 75.122025,566.184937 
	C76.878334,570.467834 78.693512,575.018677 79.852547,579.730835 
	C86.940025,608.545593 93.878670,637.396912 100.933456,666.618042 
	C86.645775,667.000000 72.291542,667.000000 57.468655,667.000000 
z"/>
<path fill="#FFFFFF" opacity="1.000000" stroke="none" 
	d="
M1.500000,1.000000 
	C1.999846,222.693527 1.999691,444.387054 1.999760,666.540283 
	C1.666651,666.833374 1.056173,666.684082 1.044441,666.497253 
	C0.961014,665.169128 1.000000,663.833313 1.000000,662.500000 
	C1.000000,442.000000 1.000000,221.500000 1.500000,1.000000 
z"/>
</svg>